<svg width="390" height="391" viewBox="0 0 390 391" fill="none" xmlns="http://www.w3.org/2000/svg">
<path d="M270.783 15.6457C246.777 5.48275 221.28 0.329468 195 0.329468C168.721 0.329468 143.224 5.48275 119.218 15.6457C96.0341 25.4612 75.2142 39.5113 57.3367 57.4052C39.4586 75.2997 25.4224 96.1393 15.6162 119.345C5.46285 143.374 0.314453 168.896 0.314453 195.2C0.314453 221.504 5.46285 247.025 15.6167 271.054C25.4229 294.26 39.4592 315.1 57.3372 332.994C75.2147 350.889 96.0341 364.939 119.218 374.754C143.225 384.918 168.721 390.071 195.001 390.071C221.281 390.071 246.777 384.918 270.784 374.754C293.967 364.939 314.787 350.889 332.665 332.994C347.618 318.028 359.871 300.995 369.222 282.247C369.273 282.149 369.321 282.052 369.367 281.953C371.142 278.379 372.823 274.75 374.385 271.054C384.539 247.025 389.688 221.504 389.688 195.2C389.688 168.896 384.539 143.374 374.385 119.345C364.579 96.1393 350.543 75.3002 332.665 57.4052C314.787 39.5113 293.967 25.4612 270.783 15.6457ZM319.002 327.729H233.861C230.22 327.729 227.267 330.683 227.267 334.329C227.267 337.974 230.22 340.929 233.861 340.929H303.257C273.012 363.496 235.538 376.871 195 376.871C152.985 376.871 114.261 362.502 83.4669 338.422C136.168 328.452 174.68 310.18 206.114 295.255C257.637 270.792 292.194 254.391 349.14 291.008C340.716 304.536 330.568 316.879 319.002 327.729ZM276.654 256.751C252.49 259.019 229.761 269.434 203.8 281.745H121.61C117.969 281.745 115.016 284.7 115.016 288.345C115.016 291.99 117.969 294.945 121.61 294.945H175.523C146.899 307.802 113.839 320.327 70.5258 327.288C51.6091 309.417 36.5205 287.533 26.6267 263.009H121.61C125.251 263.009 128.204 260.054 128.204 256.409C128.204 252.765 125.251 249.809 121.61 249.809H21.885C18.7812 239.973 16.4955 229.778 15.1024 219.303C100.664 243.505 160.931 235.493 209.692 229.008C271.255 220.819 308.87 215.824 355.365 279.329C327.412 261.544 302.239 254.347 276.654 256.751ZM374.37 167.364H316.15C312.508 167.364 309.556 170.32 309.556 173.964C309.556 177.609 312.508 180.564 316.15 180.564H375.908C376.294 185.393 376.499 190.273 376.499 195.2C376.499 220.401 371.342 244.418 362.034 266.255C312.479 202.029 268.216 207.907 207.955 215.922C179.064 219.765 146.029 224.156 105.934 221.745C168.542 208.15 210.324 184.124 245.169 164.084C290.075 138.259 320.039 121.033 367.753 139.475C370.662 148.488 372.895 157.802 374.37 167.364ZM238.599 152.639C197.006 176.559 145.275 206.305 59.0748 216.032C44.8006 213.419 29.7337 209.88 13.7794 205.186C13.6001 201.879 13.502 198.552 13.502 195.201C13.502 95.0263 94.9216 13.5295 195 13.5295C269.647 13.5295 333.903 58.8736 361.745 123.484C313.984 109.294 280.296 128.66 238.599 152.639Z" fill="black"/>
<path d="M136.359 69.3618C126.992 69.3618 118.187 73.0129 111.564 79.642C104.941 86.2715 101.293 95.0855 101.293 104.461C101.293 113.836 104.941 122.65 111.564 129.279C118.187 135.908 126.993 139.559 136.359 139.559C145.725 139.559 154.531 135.908 161.154 129.279C167.777 122.65 171.425 113.836 171.424 104.461C171.424 95.086 167.777 86.2715 161.154 79.6425C154.53 73.0129 145.725 69.3618 136.359 69.3618ZM151.829 119.945C147.697 124.082 142.203 126.359 136.359 126.359C130.515 126.359 125.021 124.082 120.889 119.945C116.757 115.809 114.481 110.31 114.481 104.461C114.481 98.6114 116.757 93.1123 120.89 88.976C125.022 84.8401 130.515 82.5623 136.359 82.5623C142.202 82.5623 147.696 84.8401 151.829 88.9765C155.961 93.1123 158.236 98.612 158.236 104.461C158.237 110.31 155.961 115.809 151.829 119.945Z" fill="black"/>
<path d="M170.261 77.1265C171.948 77.1265 173.636 76.4823 174.924 75.1935L181.077 69.0339C183.653 66.4562 183.653 62.2776 181.077 59.6999C178.503 57.1222 174.327 57.1222 171.752 59.6999L165.598 65.8595C163.023 68.4372 163.023 72.6158 165.598 75.1935C166.886 76.4823 168.573 77.1265 170.261 77.1265Z" fill="black"/>
<path d="M108.717 64.6974C109.883 66.9852 112.197 68.3021 114.597 68.3021C115.604 68.3021 116.627 68.0703 117.586 67.5814C120.83 65.9266 122.121 61.9518 120.467 58.7041L116.516 50.9425C114.862 47.6948 110.892 46.4033 107.647 48.0586C104.403 49.7133 103.113 53.6881 104.766 56.9358L108.717 64.6974Z" fill="black"/>
<path d="M87.9726 105.448L79.3765 106.812C75.78 107.383 73.3255 110.763 73.8958 114.363C74.4101 117.614 77.2132 119.931 80.3998 119.931C80.7427 119.931 81.0909 119.905 81.4401 119.849L90.0362 118.486C93.6327 117.916 96.0872 114.535 95.5169 110.934C94.9467 107.334 91.5654 104.879 87.9726 105.448Z" fill="black"/>
<path d="M129.889 145.34C126.295 144.769 122.914 147.226 122.344 150.828L120.983 159.432C120.414 163.032 122.868 166.413 126.465 166.983C126.814 167.038 127.161 167.065 127.505 167.065C130.691 167.065 133.495 164.747 134.009 161.496L135.37 152.891C135.94 149.291 133.486 145.911 129.889 145.34Z" fill="black"/>
<path d="M189.826 124.322L182.071 120.367C178.827 118.713 174.856 120.004 173.202 123.253C171.549 126.5 172.839 130.475 176.085 132.13L183.839 136.084C184.798 136.573 185.82 136.804 186.827 136.804C189.228 136.804 191.543 135.487 192.707 133.199C194.361 129.95 193.071 125.976 189.826 124.322Z" fill="black"/>
<path d="M100.894 281.745H97.3975C93.7561 281.745 90.8037 284.7 90.8037 288.345C90.8037 291.99 93.7561 294.945 97.3975 294.945H100.894C104.536 294.945 107.488 291.99 107.488 288.345C107.488 284.7 104.536 281.745 100.894 281.745Z" fill="black"/>
<path d="M145.592 249.809H141.372C137.731 249.809 134.778 252.765 134.778 256.409C134.778 260.054 137.731 263.009 141.372 263.009H145.592C149.233 263.009 152.186 260.054 152.186 256.409C152.186 252.765 149.233 249.809 145.592 249.809Z" fill="black"/>
<path d="M215.973 327.729H213.19C209.549 327.729 206.597 330.684 206.597 334.329C206.597 337.973 209.549 340.929 213.19 340.929H215.973C219.614 340.929 222.567 337.973 222.567 334.329C222.567 330.684 219.614 327.729 215.973 327.729Z" fill="black"/>
<path d="M298.214 167.364H294.346C290.704 167.364 287.752 170.32 287.752 173.964C287.752 177.609 290.704 180.564 294.346 180.564H298.214C301.855 180.564 304.808 177.609 304.808 173.964C304.808 170.32 301.855 167.364 298.214 167.364Z" fill="black"/>
</svg>
